<?xml version="1.0" encoding="UTF-8"?>
<svg version="1.1" xmlns="http://www.w3.org/2000/svg" width="500" height="500">
<path d="M0 0 C0.68449219 0.39832031 1.36898437 0.79664062 2.07421875 1.20703125 C3.75 2.25 3.75 2.25 6 4 C6 4.66 6 5.32 6 6 C6.66 6 7.32 6 8 6 C8 6.66 8 7.32 8 8 C8.66 8 9.32 8 10 8 C10 8.66 10 9.32 10 10 C10.58265625 10.2578125 11.1653125 10.515625 11.765625 10.78125 C14.1802903 12.09834017 15.81740177 13.55088384 17.75 15.5 C18.36359375 16.1084375 18.9771875 16.716875 19.609375 17.34375 C21 19 21 19 21 21 C21.66 21 22.32 21 23 21 C23 21.66 23 22.32 23 23 C23.66 23 24.32 23 25 23 C25 23.66 25 24.32 25 25 C25.66 25 26.32 25 27 25 C27 25.66 27 26.32 27 27 C27.66 27 28.32 27 29 27 C29 27.66 29 28.32 29 29 C29.66 29 30.32 29 31 29 C31 29.66 31 30.32 31 31 C31.66 31 32.32 31 33 31 C34.62109375 32.6796875 34.62109375 32.6796875 36.4375 34.875 C38.58400884 37.46193722 40.16776562 39.11184374 43 41 C43 41.66 43 42.32 43 43 C43.66 43 44.32 43 45 43 C45 43.66 45 44.32 45 45 C45.66 45 46.32 45 47 45 C47 45.66 47 46.32 47 47 C47.66 47 48.32 47 49 47 C49 47.66 49 48.32 49 49 C49.66 49 50.32 49 51 49 C51 49.66 51 50.32 51 51 C51.66 51 52.32 51 53 51 C53 51.66 53 52.32 53 53 C53.66 53 54.32 53 55 53 C56.515625 54.57421875 56.515625 54.57421875 58.25 56.6875 C60.41897174 59.24634889 62.40724173 61.33936811 65 63.5 C67.4089832 65.507486 69.21734472 67.32653903 71.22045898 69.69189453 C74.78514969 73.81243907 78.56870266 77.63292158 82.47265625 81.4296875 C83.88130424 82.81595434 85.28949351 84.20268744 86.69726562 85.58984375 C88.88023614 87.73578151 91.06606228 89.87846611 93.26000977 92.01318359 C111.08000561 109.37605173 111.08000561 109.37605173 115.3125 121.8125 C115.61800781 122.68519531 115.92351562 123.55789062 116.23828125 124.45703125 C121.31283863 141.39824587 118.04186302 158.94478361 109.953125 174.26953125 C109.63859375 174.84058594 109.3240625 175.41164063 109 176 C108.34 176 107.68 176 107 176 C106.62815142 177.10173018 106.62815142 177.10173018 106.24879074 178.22571754 C104.87415457 181.27957509 103.37087337 183.01646847 101.01934814 185.38851929 C100.1870015 186.23510605 99.35465485 187.08169281 98.49708557 187.95393372 C97.58184616 188.86938461 96.66660675 189.78483551 95.72363281 190.72802734 C94.75039839 191.7118818 93.77777276 192.69633878 92.80570984 193.68135071 C90.16570332 196.35210598 87.51597538 199.01300503 84.86341572 201.67128706 C83.2023679 203.33669659 81.54334695 205.00409843 79.88500214 206.67219925 C74.08669769 212.50425471 68.28013299 218.32794856 62.46630859 224.14453125 C57.06949126 229.54437365 51.69161127 234.96257685 46.32226491 240.38972318 C41.69680446 245.06319084 37.05772311 249.72284905 32.40822673 254.37240374 C29.63840016 257.14276508 26.87422479 259.91821425 24.12387848 262.7079277 C21.52923217 265.33882339 18.91781605 267.95191108 16.29346657 270.55316734 C14.89368143 271.94879551 13.51101468 273.36153022 12.1292572 274.77500916 C1.21114647 285.51718001 -12.94858454 292.277931 -28.39697266 292.46875 C-29.35909668 292.4584375 -30.3212207 292.448125 -31.3125 292.4375 C-32.3236084 292.42847656 -33.3347168 292.41945313 -34.37646484 292.41015625 C-47.54750546 292.10567241 -58.61556646 288.12892246 -69 280 C-71.7217471 276.26112802 -72.37003154 273.69466353 -72.328125 269.1015625 C-72.32361328 267.91763916 -72.31910156 266.73371582 -72.31445312 265.51391602 C-72.29318359 264.23057373 -72.27191406 262.94723145 -72.25 261.625 C-72.23797704 260.27857264 -72.22693154 258.93213625 -72.21679688 257.58569336 C-72.05212915 240.05429844 -71.52090576 222.52376845 -71 205 C-70.44448959 204.99413376 -69.88897919 204.98826752 -69.31663513 204.98222351 C-63.45858095 204.91756607 -57.60104008 204.83297555 -51.7434082 204.73754883 C-49.56639435 204.70459057 -47.38930101 204.67647134 -45.2121582 204.65356445 C-22.03307058 204.47093129 -22.03307058 204.47093129 -0.1875 197.3125 C0.87766846 196.79248413 0.87766846 196.79248413 1.96435547 196.26196289 C10.49151416 191.95171266 21.58833612 184.82332775 26 176 C26.66 176 27.32 176 28 176 C28.27070313 175.27941406 28.54140625 174.55882812 28.8203125 173.81640625 C29.98637424 171.03253038 31.35758327 168.54384013 32.875 165.9375 C42.44111315 148.4851765 43.95593415 129.15891617 39 110 C38.76796875 109.07960938 38.5359375 108.15921875 38.296875 107.2109375 C33.08625084 89.2579688 20.59786542 75.4976387 4.77734375 66.08203125 C-13.42416503 56.28121883 -33.88230466 54.01519073 -53.8203125 59.609375 C-64.21515542 62.87451553 -73.66983799 67.77281034 -81.3984375 75.53125 C-83 77 -83 77 -85 77 C-85 77.66 -85 78.32 -85 79 C-85.66 79 -86.32 79 -87 79 C-87.26167969 79.56460938 -87.52335937 80.12921875 -87.79296875 80.7109375 C-89.10690623 83.20274126 -90.64521642 85.35512834 -92.3125 87.625 C-102.95209247 102.73277892 -105.10690975 117.78334189 -105.20532227 135.87548828 C-105.21522186 137.0181163 -105.22512146 138.16074432 -105.23532104 139.33799744 C-105.26668907 143.08208201 -105.29159498 146.82617923 -105.31640625 150.5703125 C-105.33699715 153.17919223 -105.35799415 155.78806879 -105.37937927 158.39694214 C-105.42906443 164.54125523 -105.47409173 170.68559305 -105.51740164 176.82995403 C-105.56698222 183.83129098 -105.62182234 190.83258373 -105.67708123 197.8338778 C-105.79052955 212.22254361 -105.89744778 226.61125261 -106 241 C-110.26809116 240.14733462 -112.11926164 238.2542256 -115.203125 235.16015625 C-115.9271048 234.43692421 -115.9271048 234.43692421 -116.66571045 233.69908142 C-117.68114221 232.68131446 -118.69289527 231.65986563 -119.70117188 230.63500977 C-121.24972559 229.06277861 -122.81125872 227.50437672 -124.375 225.94726562 C-132 218.27912308 -132 218.27912308 -132 216 C-132.66 216 -133.32 216 -134 216 C-134 215.34 -134 214.68 -134 214 C-134.66 214 -135.32 214 -136 214 C-136 213.34 -136 212.68 -136 212 C-136.66 212 -137.32 212 -138 212 C-138 211.34 -138 210.68 -138 210 C-138.86625 209.62875 -138.86625 209.62875 -139.75 209.25 C-142.32939979 207.81700012 -144.06121592 206.21575324 -146 204 C-146 203.34 -146 202.68 -146 202 C-146.57057129 201.7532251 -147.14114258 201.5064502 -147.72900391 201.25219727 C-152.29290612 198.73572183 -155.72315867 194.60325841 -159.375 190.9375 C-160.21289062 190.11572266 -161.05078125 189.29394531 -161.9140625 188.44726562 C-169.17778678 181.18925182 -174.57261509 173.95152469 -178.3125 164.375 C-178.56322266 163.75882813 -178.81394531 163.14265625 -179.07226562 162.5078125 C-184.52144977 148.59997522 -183.30690534 131.20117959 -177.55859375 117.5859375 C-170.89236233 104.37720982 -159.68219293 94.54773303 -149.30047607 84.22531128 C-147.02031487 81.9580536 -144.74341539 79.68756375 -142.46728516 77.41625977 C-137.64768271 72.60800043 -132.8241196 67.8037267 -128 63 C-122.37918183 57.40279229 -116.76000361 51.80395796 -111.14498901 46.20092773 C-108.89955211 43.96198114 -106.65113221 41.72605959 -104.40258789 39.49023438 C-103.03647469 38.12775095 -101.67050014 36.76512847 -100.3046875 35.40234375 C-99.67722122 34.78004379 -99.04975494 34.15774384 -98.40327454 33.5165863 C-95.32550153 30.54489728 -95.32550153 30.54489728 -93 27 C-92.34 27 -91.68 27 -91 27 C-91 26.34 -91 25.68 -91 25 C-90.34 25 -89.68 25 -89 25 C-89 24.34 -89 23.68 -89 23 C-88.34 23 -87.68 23 -87 23 C-87 22.34 -87 21.68 -87 21 C-86.34 21 -85.68 21 -85 21 C-84.773125 20.443125 -84.54625 19.88625 -84.3125 19.3125 C-82.62449964 16.33840412 -80.53323483 14.27991135 -78 12 C-77.34 12 -76.68 12 -76 12 C-76 11.34 -76 10.68 -76 10 C-75.34 10 -74.68 10 -74 10 C-74 9.34 -74 8.68 -74 8 C-73.34 8 -72.68 8 -72 8 C-72 7.34 -72 6.68 -72 6 C-51.04470173 -11.25730446 -23.54694827 -13.78093286 0 0 Z " fill="#059643" transform="translate(283,104)"/>
<path d="M0 0 C5.30947739 15.58862563 2.30900366 32.37271473 -4.75 46.8125 C-5.48965843 48.21384082 -6.23552597 49.61204101 -7 51 C-7.66 51 -8.32 51 -9 51 C-9.37184858 52.10173018 -9.37184858 52.10173018 -9.75120926 53.22571754 C-11.12584543 56.27957509 -12.62912663 58.01646847 -14.98065186 60.38851929 C-15.8129985 61.23510605 -16.64534515 62.08169281 -17.50291443 62.95393372 C-18.41815384 63.86938461 -19.33339325 64.78483551 -20.27636719 65.72802734 C-21.24960161 66.7118818 -22.22222724 67.69633878 -23.19429016 68.68135071 C-25.83429668 71.35210598 -28.48402462 74.01300503 -31.13658428 76.67128706 C-32.7976321 78.33669659 -34.45665305 80.00409843 -36.11499786 81.67219925 C-41.91330231 87.50425471 -47.71986701 93.32794856 -53.53369141 99.14453125 C-58.93050874 104.54437365 -64.30838873 109.96257685 -69.67773509 115.38972318 C-74.30319554 120.06319084 -78.94227689 124.72284905 -83.59177327 129.37240374 C-86.36159984 132.14276508 -89.12577521 134.91821425 -91.87612152 137.7079277 C-94.47076783 140.33882339 -97.08218395 142.95191108 -99.70653343 145.55316734 C-101.10631857 146.94879551 -102.48898532 148.36153022 -103.8707428 149.77500916 C-114.78885353 160.51718001 -128.94858454 167.277931 -144.39697266 167.46875 C-145.35909668 167.4584375 -146.3212207 167.448125 -147.3125 167.4375 C-148.3236084 167.42847656 -149.3347168 167.41945313 -150.37646484 167.41015625 C-163.54750546 167.10567241 -174.61556646 163.12892246 -185 155 C-188.11342604 150.89055417 -188.35582933 147.82217558 -188.29296875 142.73046875 C-188.28872391 142.04946609 -188.28447906 141.36846344 -188.28010559 140.66682434 C-188.2634061 138.50663541 -188.22577312 136.34740358 -188.1875 134.1875 C-188.17244174 132.71681042 -188.15875534 131.24610611 -188.14648438 129.77539062 C-188.11353214 126.18328643 -188.06181173 122.59173674 -188 119 C-187.67 119 -187.34 119 -187 119 C-187 120.98 -187 122.96 -187 125 C-177.55201285 122.38672696 -168.86653376 119.27732151 -160.23046875 114.59179688 C-156.7848595 112.74871431 -155.0060638 112 -151 112 C-151 111.34 -151 110.68 -151 110 C-150.154375 109.56429687 -149.30875 109.12859375 -148.4375 108.6796875 C-141.86441646 105.22881864 -135.80877017 101.63842646 -130 97 C-127.88063982 95.36683018 -125.756371 93.74225082 -123.625 92.125 C-122.09746094 90.95324219 -122.09746094 90.95324219 -120.5390625 89.7578125 C-118 88 -118 88 -116 88 C-115.74605469 87.40832031 -115.49210937 86.81664062 -115.23046875 86.20703125 C-113.86446788 83.7569027 -112.47063789 82.4640418 -110.3125 80.6875 C-106.324948 77.31620604 -102.64815102 73.73127345 -99 70 C-98.52820313 69.5565625 -98.05640625 69.113125 -97.5703125 68.65625 C-95.3810597 66.34718735 -93.57098007 63.81335456 -91.6875 61.25 C-89.07143915 57.70688327 -86.41956019 54.23879445 -83.5 50.9375 C-80.86171003 48.20852911 -80.86171003 48.20852911 -80 45 C-79.34 45 -78.68 45 -78 45 C-77.62875 43.6696875 -77.62875 43.6696875 -77.25 42.3125 C-76 39 -76 39 -74.1875 36.8125 C-70.93058259 32.62503475 -69.07554397 27.85711313 -67 23 C-66.34 23 -65.68 23 -65 23 C-65 22.01 -65 21.02 -65 20 C-64.29617188 19.91024902 -63.59234375 19.82049805 -62.8671875 19.72802734 C-50.02877708 18.04570953 -37.91313204 16.33501643 -25.9765625 11.171875 C-23 10 -23 10 -19 10 C-19 9.34 -19 8.68 -19 8 C-18.35933594 7.75765625 -17.71867188 7.5153125 -17.05859375 7.265625 C-12.88482412 5.64836702 -8.85823226 4.03394298 -5 1.75 C-2 0 -2 0 0 0 Z " fill="#D5DC57" transform="translate(399,229)"/>
<path d="M0 0 C0.66 0 1.32 0 2 0 C1.9071875 1.85625 1.9071875 1.85625 1.8125 3.75 C1.85456523 12.76598126 4.92393727 21.12881011 8 29.5 C8.2489502 30.18263916 8.49790039 30.86527832 8.75439453 31.56860352 C10.10384834 35.12075124 11.51960436 38.10620509 14 41 C17.465 40.505 17.465 40.505 21 40 C17.50794062 43.59476701 13.95966325 46.92026191 10 50 C9.34 50 8.68 50 8 50 C8 50.66 8 51.32 8 52 C7.34 52 6.68 52 6 52 C5.73832031 52.56460938 5.47664063 53.12921875 5.20703125 53.7109375 C3.89309377 56.20274126 2.35478358 58.35512834 0.6875 60.625 C-9.95209247 75.73277892 -12.10690975 90.78334189 -12.20532227 108.87548828 C-12.21522186 110.0181163 -12.22512146 111.16074432 -12.23532104 112.33799744 C-12.26668907 116.08208201 -12.29159498 119.82617923 -12.31640625 123.5703125 C-12.33699715 126.17919223 -12.35799415 128.78806879 -12.37937927 131.39694214 C-12.42906443 137.54125523 -12.47409173 143.68559305 -12.51740164 149.82995403 C-12.56698222 156.83129098 -12.62182234 163.83258373 -12.67708123 170.8338778 C-12.79052955 185.22254361 -12.89744778 199.61125261 -13 214 C-17.26809116 213.14733462 -19.11926164 211.2542256 -22.203125 208.16015625 C-22.9271048 207.43692421 -22.9271048 207.43692421 -23.66571045 206.69908142 C-24.68114221 205.68131446 -25.69289527 204.65986563 -26.70117188 203.63500977 C-28.24972559 202.06277861 -29.81125872 200.50437672 -31.375 198.94726562 C-39 191.27912308 -39 191.27912308 -39 189 C-39.66 189 -40.32 189 -41 189 C-41 188.34 -41 187.68 -41 187 C-41.66 187 -42.32 187 -43 187 C-43 186.34 -43 185.68 -43 185 C-43.66 185 -44.32 185 -45 185 C-45 184.34 -45 183.68 -45 183 C-45.86625 182.62875 -45.86625 182.62875 -46.75 182.25 C-49.32939979 180.81700012 -51.06121592 179.21575324 -53 177 C-53 176.34 -53 175.68 -53 175 C-53.57057129 174.7532251 -54.14114258 174.5064502 -54.72900391 174.25219727 C-59.29290612 171.73572183 -62.72315867 167.60325841 -66.375 163.9375 C-67.21289062 163.11572266 -68.05078125 162.29394531 -68.9140625 161.44726562 C-76.17778678 154.18925182 -81.57261509 146.95152469 -85.3125 137.375 C-85.56322266 136.75882813 -85.81394531 136.14265625 -86.07226562 135.5078125 C-91.52144977 121.59997522 -90.30690534 104.20117959 -84.55859375 90.5859375 C-77.89236233 77.37720982 -66.68219293 67.54773303 -56.30047607 57.22531128 C-54.02031487 54.9580536 -51.74341539 52.68756375 -49.46728516 50.41625977 C-44.64768271 45.60800043 -39.8241196 40.8037267 -35 36 C-29.37918183 30.40279229 -23.76000361 24.80395796 -18.14498901 19.20092773 C-15.89955211 16.96198114 -13.65113221 14.72605959 -11.40258789 12.49023438 C-10.03647469 11.12775095 -8.67050014 9.76512847 -7.3046875 8.40234375 C-6.67722122 7.78004379 -6.04975494 7.15774384 -5.40327454 6.5165863 C-2.32550153 3.54489728 -2.32550153 3.54489728 0 0 Z " fill="#9BBA3B" transform="translate(190,131)"/>
<path d="M0 0 C1.02673828 0.59748047 1.02673828 0.59748047 2.07421875 1.20703125 C3.75 2.25 3.75 2.25 6 4 C6 4.66 6 5.32 6 6 C6.66 6 7.32 6 8 6 C8 6.66 8 7.32 8 8 C8.66 8 9.32 8 10 8 C10 8.66 10 9.32 10 10 C10.87398437 10.38671875 10.87398437 10.38671875 11.765625 10.78125 C14.1802903 12.09834017 15.81740177 13.55088384 17.75 15.5 C18.36359375 16.1084375 18.9771875 16.716875 19.609375 17.34375 C21 19 21 19 21 21 C21.66 21 22.32 21 23 21 C23 21.66 23 22.32 23 23 C23.66 23 24.32 23 25 23 C25 23.66 25 24.32 25 25 C25.66 25 26.32 25 27 25 C27 25.66 27 26.32 27 27 C27.66 27 28.32 27 29 27 C29 27.66 29 28.32 29 29 C29.66 29 30.32 29 31 29 C31 29.66 31 30.32 31 31 C31.66 31 32.32 31 33 31 C34.7265625 32.75 34.7265625 32.75 36.625 35 C37.25664062 35.7425 37.88828125 36.485 38.5390625 37.25 C39.26222656 38.11625 39.26222656 38.11625 40 39 C37 40 37 40 34 40 C33.896875 39.401875 33.79375 38.80375 33.6875 38.1875 C32.90614947 35.70138466 31.85104584 34.77056558 30 33 C30 32.34 30 31.68 30 31 C22.91762808 30.63263933 16.66882865 31.98422412 9.8125 33.6875 C8.70422852 33.95933105 7.59595703 34.23116211 6.45410156 34.51123047 C-8.23829124 38.17544033 -8.23829124 38.17544033 -21 46 C-21.7425 46.350625 -22.485 46.70125 -23.25 47.0625 C-25.35994637 47.93497944 -25.35994637 47.93497944 -26 51 C-29.0625 52.1875 -29.0625 52.1875 -32 53 C-30.94941406 53.10957031 -29.89882812 53.21914062 -28.81640625 53.33203125 C-21.23038052 54.17060563 -14.11228341 55.07049119 -7 58 C-5.989375 58.391875 -4.97875 58.78375 -3.9375 59.1875 C-3.298125 59.455625 -2.65875 59.72375 -2 60 C-2 60.66 -2 61.32 -2 62 C-2.67804688 61.80664062 -3.35609375 61.61328125 -4.0546875 61.4140625 C-7.02961869 60.58174103 -10.01255782 59.78616899 -13 59 C-13.76699219 58.78730469 -14.53398437 58.57460937 -15.32421875 58.35546875 C-32.9106494 54.08930145 -51.60586857 57.07240878 -67.328125 65.671875 C-71.1549573 67.57410158 -74.80032187 68.30005364 -79 69 C-82.43378231 65.15090061 -84.34744644 61.24321103 -86.0625 56.4375 C-86.31854004 55.73439697 -86.57458008 55.03129395 -86.83837891 54.30688477 C-93.97526603 34.29770633 -93.97526603 34.29770633 -91 25 C-90.34 25 -89.68 25 -89 25 C-89 24.34 -89 23.68 -89 23 C-88.34 23 -87.68 23 -87 23 C-87 22.34 -87 21.68 -87 21 C-86.34 21 -85.68 21 -85 21 C-84.773125 20.443125 -84.54625 19.88625 -84.3125 19.3125 C-82.62449964 16.33840412 -80.53323483 14.27991135 -78 12 C-77.34 12 -76.68 12 -76 12 C-76 11.34 -76 10.68 -76 10 C-75.34 10 -74.68 10 -74 10 C-74 9.34 -74 8.68 -74 8 C-73.34 8 -72.68 8 -72 8 C-72 7.34 -72 6.68 -72 6 C-51.04470173 -11.25730446 -23.54694827 -13.78093286 0 0 Z " fill="#4CA738" transform="translate(283,104)"/>
<path d="M0 0 C1.40224371 1.04783047 2.77893462 2.13091819 4.125 3.25 C4.76179688 3.7759375 5.39859375 4.301875 6.0546875 4.84375 C13.64563855 11.75053808 17.40994928 21.08982997 18.4140625 31.14453125 C18.91849588 42.12259461 15.92970934 53.04373987 8.78125 61.578125 C0.57397864 69.86282345 -9.0128983 74.23879206 -20.68701172 74.36352539 C-22.55957778 74.36336832 -24.43214888 74.35779385 -26.3046875 74.34765625 C-27.790186 74.34553383 -27.790186 74.34553383 -29.30569458 74.34336853 C-32.45382773 74.33779252 -35.60188852 74.32524442 -38.75 74.3125 C-40.89062397 74.3074819 -43.03124906 74.30291954 -45.171875 74.29882812 C-50.40627449 74.28783094 -55.64063207 74.27111675 -60.875 74.25 C-61.73600161 66.44438371 -62.06124879 58.76620047 -62.06030273 50.91015625 C-62.06248898 48.88520249 -62.08071528 46.86079554 -62.09960938 44.8359375 C-62.12186276 29.70363279 -60.59235301 16.49978931 -49.875 5.06640625 C-36.56907347 -7.0180778 -15.45066291 -9.87785971 0 0 Z " fill="#6CB337" transform="translate(272.875,199.75)"/>
<path d="M0 0 C4.13875054 1.80852965 5.72133209 4.09371216 8 8 C8 8.66 8 9.32 8 10 C8.99 10.33 9.98 10.66 11 11 C11.17390259 11.94637329 11.17390259 11.94637329 11.35131836 12.91186523 C11.87600481 15.75450681 12.40667024 18.5959995 12.9375 21.4375 C13.11990234 22.43072266 13.30230469 23.42394531 13.49023438 24.44726562 C13.66748047 25.39150391 13.84472656 26.33574219 14.02734375 27.30859375 C14.18968506 28.18314209 14.35202637 29.05769043 14.51928711 29.95874023 C14.8068839 31.98228064 14.8068839 31.98228064 16 33 C16.25194063 36.43020341 16.18522745 39.87413911 16.1875 43.3125 C16.19974609 44.27607422 16.21199219 45.23964844 16.22460938 46.23242188 C16.22654297 47.16248047 16.22847656 48.09253906 16.23046875 49.05078125 C16.23457764 49.90325439 16.23868652 50.75572754 16.24291992 51.6340332 C15.98180606 54.17720347 15.27889646 55.80620312 14 58 C16.64 58 19.28 58 22 58 C22 58.99 22 59.98 22 61 C21.34 61 20.68 61 20 61 C19.62875 62.2375 19.62875 62.2375 19.25 63.5 C16.82590244 70.28747316 13.45766756 77.29903741 9 83 C8.34 83 7.68 83 7 83 C6.938125 83.53625 6.87625 84.0725 6.8125 84.625 C5.90056432 87.29065813 4.50025254 88.931399 2.65625 91.02734375 C-0.32082571 94.57315327 -2.98737861 98.3612556 -5.71875 102.09765625 C-7.98126395 104.97616286 -10.3695349 107.45695217 -13 110 C-13.95802627 110.96517324 -14.91366713 111.93271877 -15.8671875 112.90234375 C-24.70803292 121.84074132 -33.84008779 129.55199284 -44 137 C-44.89589844 137.65742188 -45.79179687 138.31484375 -46.71484375 138.9921875 C-59.26005901 148 -59.26005901 148 -64 148 C-64 148.66 -64 149.32 -64 150 C-64.90878906 150.34611328 -64.90878906 150.34611328 -65.8359375 150.69921875 C-70.30586588 152.43905241 -74.62529841 154.27166621 -78.875 156.5 C-85.46092692 159.86590885 -92.53674802 163 -100 163 C-100 148.15 -100 133.3 -100 118 C-95.17181641 117.94392578 -95.17181641 117.94392578 -90.24609375 117.88671875 C-87.07846842 117.8403165 -83.9109526 117.78915131 -80.7434082 117.73754883 C-78.56639435 117.70459057 -76.38930101 117.67647134 -74.2121582 117.65356445 C-51.03307058 117.47093129 -51.03307058 117.47093129 -29.1875 110.3125 C-28.12233154 109.79248413 -28.12233154 109.79248413 -27.03564453 109.26196289 C-18.50848584 104.95171266 -7.41166388 97.82332775 -3 89 C-2.34 89 -1.68 89 -1 89 C-0.72929687 88.27941406 -0.45859375 87.55882812 -0.1796875 86.81640625 C0.98637424 84.03253038 2.35758327 81.54384013 3.875 78.9375 C14.03508867 60.40153335 14.80920586 40.215563 9.19140625 20.10546875 C6.95783257 12.88574305 3.83774155 6.49857569 0 0 Z " fill="#6FB336" transform="translate(312,191)"/>
<path d="M0 0 C3.33733376 1.11244459 4.03885451 1.95267245 6.22045898 4.59814453 C9.76774777 8.77663941 13.54567976 12.61053081 17.47265625 16.4296875 C18.88130424 17.81595434 20.28949351 19.20268744 21.69726562 20.58984375 C23.88023614 22.73578151 26.06606228 24.87846611 28.26000977 27.01318359 C45.61720191 43.92512011 45.61720191 43.92512011 50 56 C50.01953125 58.57421875 50.01953125 58.57421875 49 61 C46.19921875 63.01953125 46.19921875 63.01953125 42.6875 64.8125 C40.96080078 65.71935547 40.96080078 65.71935547 39.19921875 66.64453125 C36 68 36 68 32 68 C32 68.66 32 69.32 32 70 C13.0965251 76.54826255 13.0965251 76.54826255 4 78 C3.06542969 78.18304688 2.13085938 78.36609375 1.16796875 78.5546875 C-3.61536277 79.48958228 -8.10006957 80.2648611 -13 80 C-12.39857805 76.5676424 -11.52185183 73.52876636 -10.1875 70.3125 C-9.65189453 68.99572266 -9.65189453 68.99572266 -9.10546875 67.65234375 C-8.41377876 65.99277659 -7.70995363 64.33815674 -6.98828125 62.69140625 C-3.98258817 55.64644183 -2.20780231 48.40917758 -0.47314453 40.97241211 C-0.15190854 39.63326577 0.18628629 38.29809687 0.53955078 36.96704102 C2.29270274 30.34781951 2.68436509 23.83124127 3 17 C3.05414063 15.94167969 3.10828125 14.88335937 3.1640625 13.79296875 C3.20660156 12.34857422 3.20660156 12.34857422 3.25 10.875 C3.27578125 10.02679688 3.3015625 9.17859375 3.328125 8.3046875 C2.92583067 5.47904878 1.77916472 4.18181778 0 2 C0 1.34 0 0.68 0 0 Z " fill="#6DB339" transform="translate(348,169)"/>
<path d="M0 0 C9.04227954 8.00029811 10.93809468 15.21043755 12 27 C12.4381161 35.6856517 12.4381161 35.6856517 11 40 C5.09858756 39.47792656 0.25337566 38.24832106 -5.1875 35.9375 C-5.91855957 35.63312012 -6.64961914 35.32874023 -7.40283203 35.01513672 C-13.46258856 32.40829308 -18.95214417 29.21365736 -24.4609375 25.6015625 C-26.97112109 23.87703692 -26.97112109 23.87703692 -30 23 C-30 22.34 -30 21.68 -30 21 C-30.54785156 20.75894531 -31.09570312 20.51789063 -31.66015625 20.26953125 C-34.54789508 18.70272804 -36.90384057 16.77838399 -39.4375 14.6875 C-40.36433594 13.92824219 -41.29117188 13.16898438 -42.24609375 12.38671875 C-44.98714651 10.01113969 -47.60811592 7.7304811 -50 5 C-50 3.68 -50 2.36 -50 1 C-49.01 0.67 -48.02 0.34 -47 0 C-46.86980469 -0.63550781 -46.73960937 -1.27101562 -46.60546875 -1.92578125 C-46 -4 -46 -4 -43.92578125 -5.23046875 C-28.79340965 -10.77221919 -12.91717614 -10.82318079 0 0 Z " fill="#059641" transform="translate(277,203)"/>
<path d="M0 0 C0.66 0 1.32 0 2 0 C2 34.98 2 69.96 2 106 C-6 106 -6 106 -7.97802734 104.9777832 C-8.4261377 104.50687256 -8.87424805 104.03596191 -9.3359375 103.55078125 C-10.09583984 102.77250977 -10.09583984 102.77250977 -10.87109375 101.97851562 C-11.36738281 101.42873047 -11.86367187 100.87894531 -12.375 100.3125 C-12.89449219 99.78205078 -13.41398438 99.25160156 -13.94921875 98.70507812 C-19.0100367 93.37618067 -20.14221812 89.39534204 -20 82 C-20.33 81.67 -20.66 81.34 -21 81 C-21.33 81.99 -21.66 82.98 -22 84 C-23.01834441 66.0771384 -19.23820797 49.36381667 -14.375 32.1875 C-14.18139893 31.49454834 -13.98779785 30.80159668 -13.78833008 30.08764648 C-12.73232476 26.57670788 -11.69335193 24.45460605 -9 22 C-8.51069613 20.04278451 -8.02605484 18.08387082 -7.59375 16.11328125 C-6.8177414 13.35130329 -5.51423457 11.17178017 -4.01953125 8.7421875 C-2.38356826 5.94663389 -1.2227888 2.99583255 0 0 Z " fill="#6CB136" transform="translate(173,232)"/>
<path d="M0 0 C4.13875054 1.80852965 5.72133209 4.09371216 8 8 C8 8.66 8 9.32 8 10 C8.99 10.33 9.98 10.66 11 11 C11.17390259 11.94637329 11.17390259 11.94637329 11.35131836 12.91186523 C11.87600481 15.75450681 12.40667024 18.5959995 12.9375 21.4375 C13.11990234 22.43072266 13.30230469 23.42394531 13.49023438 24.44726562 C13.66748047 25.39150391 13.84472656 26.33574219 14.02734375 27.30859375 C14.18968506 28.18314209 14.35202637 29.05769043 14.51928711 29.95874023 C14.8068839 31.98228064 14.8068839 31.98228064 16 33 C16.25194063 36.43020341 16.18522745 39.87413911 16.1875 43.3125 C16.19974609 44.27607422 16.21199219 45.23964844 16.22460938 46.23242188 C16.22654297 47.16248047 16.22847656 48.09253906 16.23046875 49.05078125 C16.23457764 49.90325439 16.23868652 50.75572754 16.24291992 51.6340332 C15.98180606 54.17720347 15.27889646 55.80620312 14 58 C16.64 58 19.28 58 22 58 C22 58.99 22 59.98 22 61 C21.34 61 20.68 61 20 61 C19.7525 61.825 19.505 62.65 19.25 63.5 C16.82590244 70.28747316 13.45766756 77.29903741 9 83 C8.34 83 7.68 83 7 83 C6.938125 83.53625 6.87625 84.0725 6.8125 84.625 C5.90184253 87.28692184 4.50476239 88.92586968 2.6640625 91.01953125 C-0.37425318 94.63555484 -3.1125808 98.49232378 -5.9140625 102.29296875 C-7.52204511 104.3797327 -9.07531665 106.21629665 -11 108 C-11.66 106.68 -12.32 105.36 -13 104 C-13.94875 104.515625 -14.8975 105.03125 -15.875 105.5625 C-16.90625 106.036875 -17.9375 106.51125 -19 107 C-19.66 106.67 -20.32 106.34 -21 106 C-20.03900391 105.25556641 -20.03900391 105.25556641 -19.05859375 104.49609375 C-9.87682815 97.80507334 -9.87682815 97.80507334 -3 89 C-2.34 89 -1.68 89 -1 89 C-0.72929687 88.27941406 -0.45859375 87.55882812 -0.1796875 86.81640625 C0.98637424 84.03253038 2.35758327 81.54384013 3.875 78.9375 C14.03508867 60.40153335 14.80920586 40.215563 9.19140625 20.10546875 C6.95783257 12.88574305 3.83774155 6.49857569 0 0 Z " fill="#88BA4F" transform="translate(312,191)"/>
<path d="M0 0 C1.16239991 3.48719972 0.76662743 4.92247676 0.08837891 8.50244141 C-1.69693604 20.24225104 -1.35997226 32.11275689 -1.4140625 43.9609375 C-1.43279924 46.56410316 -1.45237447 49.1672629 -1.4727478 51.77041626 C-1.51861094 57.88626201 -1.55611273 64.00210492 -1.58942068 70.11803019 C-1.62787057 77.09046618 -1.67721937 84.06281237 -1.72740483 91.03517222 C-1.83024796 105.35671349 -1.91966048 119.67831567 -2 134 C-6.81023365 132.9612309 -8.04019146 130.86419448 -11 127 C-8.03 126.505 -8.03 126.505 -5 126 C-4.99761165 125.4095414 -4.99522329 124.81908279 -4.99276257 124.21073151 C-4.93353772 109.82068577 -4.85793994 95.43079425 -4.76428509 81.0409317 C-4.71938536 74.08199074 -4.67995744 67.12310029 -4.65356445 60.1640625 C-4.6280722 53.44662254 -4.5871285 46.72943816 -4.53681374 40.01213074 C-4.5201451 37.45097152 -4.50863083 34.88977335 -4.50238609 32.3285675 C-4.49274539 28.73768568 -4.46468466 25.14738023 -4.43237305 21.55664062 C-4.43380814 20.50071716 -4.43524323 19.4447937 -4.4367218 18.35687256 C-4.34781942 11.3582202 -3.14472567 6.28945134 0 0 Z " fill="#A3C984" transform="translate(179,211)"/>
<path d="M0 0 C4.14614151 4.14614151 4.19813742 10.52391572 4.4375 16.125 C4.25360268 26.68070637 0.51446836 37.41464043 -7 45 C-16.99535025 54.06358031 -27.29753285 56.16875147 -40.4296875 56.09765625 C-41.915186 56.09553383 -41.915186 56.09553383 -43.43069458 56.09336853 C-46.57882773 56.08779252 -49.72688852 56.07524442 -52.875 56.0625 C-55.01562397 56.0574819 -57.15624906 56.05291954 -59.296875 56.04882812 C-64.53127449 56.03783094 -69.76563207 56.02111675 -75 56 C-75.66795624 50.06001303 -76.12280561 44.22773587 -76.09765625 38.2421875 C-76.0962413 37.56825958 -76.09482635 36.89433167 -76.09336853 36.19998169 C-76.08786463 34.09160515 -76.07533213 31.98334328 -76.0625 29.875 C-76.05747252 28.42708489 -76.05291183 26.97916808 -76.04882812 25.53125 C-76.03792705 22.02079741 -76.02073202 18.51040993 -76 15 C-75.34 15 -74.68 15 -74 15 C-74 28.2 -74 41.4 -74 55 C-67.60625 54.87625 -61.2125 54.7525 -54.625 54.625 C-52.62775879 54.59100098 -50.63051758 54.55700195 -48.57275391 54.52197266 C-46.95734124 54.48670716 -45.34194283 54.4507795 -43.7265625 54.4140625 C-42.50779419 54.39702271 -42.50779419 54.39702271 -41.2644043 54.37963867 C-36.09010151 54.25163058 -31.28322474 53.57918645 -26.23617554 52.42294312 C-24 52 -24 52 -20 52 C-20 51.34 -20 50.68 -20 50 C-18.3203125 48.81640625 -18.3203125 48.81640625 -16.125 47.5625 C-13.08869645 45.82669206 -12.00897332 45.01345998 -10 42 C-9.01 42 -8.02 42 -7 42 C-7 41.34 -7 40.68 -7 40 C-6.34 40 -5.68 40 -5 40 C-4.92652344 38.96939453 -4.92652344 38.96939453 -4.8515625 37.91796875 C-4.77679688 37.01691406 -4.70203125 36.11585938 -4.625 35.1875 C-4.55539062 34.29417969 -4.48578125 33.40085938 -4.4140625 32.48046875 C-4 30 -4 30 -2 27 C-3.485 26.505 -3.485 26.505 -5 26 C-3.02 26 -1.04 26 1 26 C1.11624638 17.26860536 0.89115181 8.68873018 0 0 Z " fill="#AED096" transform="translate(287,218)"/>
<path d="M0 0 C-0.6875 1.9375 -0.6875 1.9375 -2 4 C-4.1875 4.5625 -4.1875 4.5625 -7 5 C-8.03125 5.474375 -9.0625 5.94875 -10.125 6.4375 C-18.21974387 10.01471082 -26.99104026 10.28613541 -35.69921875 9.9765625 C-36.6602803 9.95153656 -37.62134186 9.92651062 -38.61152649 9.90072632 C-41.63726431 9.81951149 -44.6622494 9.72254978 -47.6875 9.625 C-49.75713216 9.56665942 -51.8267939 9.50935859 -53.89648438 9.453125 C-58.93157511 9.31600599 -63.96534255 9.15753262 -69 9 C-69 22.86 -69 36.72 -69 51 C-68.34 51.33 -67.68 51.66 -67 52 C-68.32 52 -69.64 52 -71 52 C-71 37.15 -71 22.3 -71 7 C-66.17181641 6.94392578 -66.17181641 6.94392578 -61.24609375 6.88671875 C-58.07846842 6.8403165 -54.9109526 6.78915131 -51.7434082 6.73754883 C-49.56639435 6.70459057 -47.38930101 6.67647134 -45.2121582 6.65356445 C-24.77342957 6.70799944 -24.77342957 6.70799944 -5.22436523 1.3972168 C-2 0 -2 0 0 0 Z " fill="#9DC47F" transform="translate(283,302)"/>
<path d="M0 0 C4.13875054 1.80852965 5.72133209 4.09371216 8 8 C8 8.66 8 9.32 8 10 C8.99 10.33 9.98 10.66 11 11 C11.11593506 11.63091553 11.23187012 12.26183105 11.35131836 12.91186523 C11.87600481 15.75450681 12.40667024 18.5959995 12.9375 21.4375 C13.11990234 22.43072266 13.30230469 23.42394531 13.49023438 24.44726562 C13.66748047 25.39150391 13.84472656 26.33574219 14.02734375 27.30859375 C14.18968506 28.18314209 14.35202637 29.05769043 14.51928711 29.95874023 C14.8068839 31.98228064 14.8068839 31.98228064 16 33 C16.25194063 36.43020341 16.18522745 39.87413911 16.1875 43.3125 C16.19974609 44.27607422 16.21199219 45.23964844 16.22460938 46.23242188 C16.22750977 47.62750977 16.22750977 47.62750977 16.23046875 49.05078125 C16.23457764 49.90325439 16.23868652 50.75572754 16.24291992 51.6340332 C15.98180606 54.17720347 15.27889646 55.80620312 14 58 C16.64 58 19.28 58 22 58 C22 58.33 22 58.66 22 59 C19.03 59 16.06 59 13 59 C13.02320313 57.88625 13.04640625 56.7725 13.0703125 55.625 C13.37003859 35.20756861 10.63453651 17.90695151 0 0 Z " fill="#309B62" transform="translate(312,191)"/>
<path d="M0 0 C0.495 1.485 0.495 1.485 1 3 C0.46890625 3.43570313 -0.0621875 3.87140625 -0.609375 4.3203125 C-5.44244895 8.35478752 -5.44244895 8.35478752 -9.25 13.3125 C-11.07764679 16.11924328 -12.03477754 16.71507027 -15 18 C-15.66 18.99 -16.32 19.98 -17 21 C-17.66 21 -18.32 21 -19 21 C-19 22.32 -19 23.64 -19 25 C-19.66 25 -20.32 25 -21 25 C-21 25.66 -21 26.32 -21 27 C-21.61875 27.061875 -22.2375 27.12375 -22.875 27.1875 C-23.57625 27.455625 -24.2775 27.72375 -25 28 C-25.268125 28.721875 -25.53625 29.44375 -25.8125 30.1875 C-27.29489025 33.69842427 -29.31529875 35.2282085 -32.24609375 37.5703125 C-34.03189201 38.96427947 -34.03189201 38.96427947 -35.5546875 40.63671875 C-37.52960762 42.49954881 -39.36139595 42.64343189 -42 43 C-37.43852453 37.52686034 -32.59258679 32.46045191 -27.5390625 27.44140625 C-26.74849457 26.65225327 -25.95792664 25.86310028 -25.1434021 25.05003357 C-22.63962374 22.55181339 -20.13237525 20.05710956 -17.625 17.5625 C-15.91773752 15.86025792 -14.21070391 14.15778627 -12.50390625 12.45507812 C-8.33858102 8.30072637 -4.17040781 4.14924919 0 0 Z " fill="#BACC82" transform="translate(169,153)"/>
<path d="M0 0 C-1 2 -1 2 -4.0625 3.125 C-5.031875 3.41375 -6.00125 3.7025 -7 4 C-5.42412109 4.16435547 -5.42412109 4.16435547 -3.81640625 4.33203125 C3.76961948 5.17060563 10.88771659 6.07049119 18 9 C19.010625 9.391875 20.02125 9.78375 21.0625 10.1875 C21.701875 10.455625 22.34125 10.72375 23 11 C23 11.66 23 12.32 23 13 C21.98292969 12.70996094 21.98292969 12.70996094 20.9453125 12.4140625 C17.97038131 11.58174103 14.98744218 10.78616899 12 10 C11.23300781 9.78730469 10.46601563 9.57460937 9.67578125 9.35546875 C-1.73694056 6.58693763 -14.45218776 7.50995971 -26 9 C-26 8.34 -26 7.68 -26 7 C-22.37 6.01 -18.74 5.02 -15 4 C-15 4.66 -15 5.32 -15 6 C-14.34 6 -13.68 6 -13 6 C-13 5.34 -13 4.68 -13 4 C-12.01 4 -11.02 4 -10 4 C-10 3.34 -10 2.68 -10 2 C-3.375 -1.125 -3.375 -1.125 0 0 Z " fill="#1A9246" transform="translate(258,153)"/>
<path d="M0 0 C1.70703125 1.5 1.70703125 1.5 3.70703125 4.5 C1.33203125 4.6875 1.33203125 4.6875 -1.29296875 4.5 C-1.95296875 3.51 -2.61296875 2.52 -3.29296875 1.5 C-5.84480279 0.29549696 -5.84480279 0.29549696 -8.29296875 -0.5 C-8.29296875 -1.16 -8.29296875 -1.82 -8.29296875 -2.5 C-13.8618452 -3.27939129 -19.29648497 -3.70955767 -24.91796875 -3.75 C-26.00464844 -3.7809375 -26.00464844 -3.7809375 -27.11328125 -3.8125 C-31.97998547 -3.84776597 -34.96413536 -2.90980115 -39.29296875 -0.5 C-42.66796875 -0.3125 -42.66796875 -0.3125 -45.29296875 -0.5 C-34.39394097 -12.58003698 -11.65711819 -8.30488569 0 0 Z " fill="#5FB181" transform="translate(275.29296875,201.5)"/>
<path d="M0 0 C0.33 0.66 0.66 1.32 1 2 C0.33333333 3.33333333 -0.33333333 4.66666667 -1 6 C-1 7.32 -1 8.64 -1 10 C-2.42578125 12.25390625 -2.42578125 12.25390625 -4.3125 14.5625 C-4.92738281 15.32691406 -5.54226563 16.09132813 -6.17578125 16.87890625 C-7.71952851 18.67388433 -9.29589329 20.35881415 -11 22 C-11.66 20.68 -12.32 19.36 -13 18 C-13.94875 18.515625 -14.8975 19.03125 -15.875 19.5625 C-16.90625 20.036875 -17.9375 20.51125 -19 21 C-19.66 20.67 -20.32 20.34 -21 20 C-20.35933594 19.50371094 -19.71867187 19.00742187 -19.05859375 18.49609375 C-9.87682815 11.80507334 -9.87682815 11.80507334 -3 3 C-2.34 3 -1.68 3 -1 3 C-0.67 2.01 -0.34 1.02 0 0 Z " fill="#96C56C" transform="translate(312,277)"/>
<path d="M0 0 C0.33 0.66 0.66 1.32 1 2 C1.66 2 2.32 2 3 2 C3.763125 2.845625 4.52625 3.69125 5.3125 4.5625 C7.70421303 7.26489744 7.70421303 7.26489744 10.5 7.0625 C13.46357021 5.80298266 15.59769423 4.12775654 18 2 C18 5.96 18 9.92 18 14 C11.13646254 14.71619521 11.13646254 14.71619521 8.21484375 12.875 C6.53793858 11.32335763 5.01195344 9.71251869 3.5 8 C2.96375 7.42765625 2.4275 6.8553125 1.875 6.265625 C0.56428612 4.8612887 -0.72060273 3.43292495 -2 2 C-1.34 1.34 -0.68 0.68 0 0 Z " fill="#72B146" transform="translate(157,324)"/>
<path d="M0 0 C2.97 0 5.94 0 9 0 C9 0.66 9 1.32 9 2 C8.34 2 7.68 2 7 2 C6.7525 2.825 6.505 3.65 6.25 4.5 C4.51778952 9.35018934 2.68159669 14.31840331 -1 18 C-1.99 18 -2.98 18 -4 18 C-2.66666667 12 -1.33333333 6 0 0 Z " fill="#75B63B" transform="translate(325,250)"/>
<path d="M0 0 C0.33 0 0.66 0 1 0 C1.37632149 5.14306032 0.04771554 8.33120856 -2 13 C-4.37736965 26.12308049 -3.61178104 39.48230859 1 52 C0.01 52.495 0.01 52.495 -1 53 C-1.65474408 51.31593731 -2.29833406 49.62753664 -2.9375 47.9375 C-3.29714844 46.99777344 -3.65679687 46.05804688 -4.02734375 45.08984375 C-8.15946981 31.96329069 -7.2772496 15.06443894 -1.39453125 2.59765625 C-0.93433594 1.74042969 -0.47414063 0.88320312 0 0 Z " fill="#B7C980" transform="translate(107,219)"/>
<path d="M0 0 C-0.6875 1.9375 -0.6875 1.9375 -2 4 C-4.1875 4.5625 -4.1875 4.5625 -7 5 C-8.03125 5.474375 -9.0625 5.94875 -10.125 6.4375 C-18.21974387 10.01471082 -26.99104026 10.28613541 -35.69921875 9.9765625 C-36.6602803 9.95153656 -37.62134186 9.92651062 -38.61152649 9.90072632 C-41.63726431 9.81951149 -44.6622494 9.72254978 -47.6875 9.625 C-49.75713216 9.56665942 -51.8267939 9.50935859 -53.89648438 9.453125 C-58.93141103 9.31408172 -63.96572728 9.1609288 -69 9 C-69 8.67 -69 8.34 -69 8 C-67.70376709 7.98018066 -66.40753418 7.96036133 -65.07202148 7.93994141 C-60.24305454 7.86362165 -55.41437857 7.77494531 -50.58569336 7.68261719 C-48.49948896 7.64443617 -46.41322118 7.60956467 -44.3269043 7.578125 C-41.320571 7.53223773 -38.31467001 7.47428267 -35.30859375 7.4140625 C-34.38227646 7.40251129 -33.45595917 7.39096008 -32.50157166 7.37905884 C-27.29042215 7.26144666 -22.9420614 6.66416758 -18 5 C-15.21777014 4.25409387 -12.4337665 3.51549146 -9.6484375 2.78125 C-6.9594807 2.03434192 -6.9594807 2.03434192 -4.2890625 0.90625 C-2 0 -2 0 0 0 Z " fill="#86B956" transform="translate(283,302)"/>
<path d="M0 0 C-8.70569794 3.90868071 -15.75933434 5.34349664 -25.3125 5.3125 C-26.29412109 5.32861328 -27.27574219 5.34472656 -28.28710938 5.36132812 C-35.00296453 5.36577277 -40.69037508 4.29165022 -47 2 C-43.72812215 1.10201531 -41.32081038 1.03389449 -37.9375 1.4375 C-27.8547765 2.46990653 -16.9070715 2.95531188 -7.125 -0.125 C-4.11893667 -0.96669773 -2.84189052 -1.13675621 0 0 Z " fill="#D4DC72" transform="translate(277,391)"/>
<path d="M0 0 C0.66 0.66 1.32 1.32 2 2 C1.89048485 5.17593925 0.73018356 6.31241903 -1.375 8.75 C-4 11 -4 11 -7 11 C-7.66 11.66 -8.32 12.32 -9 13 C-9.66 11.68 -10.32 10.36 -11 9 C-12.65 9.33 -14.3 9.66 -16 10 C-16 9.01 -16 8.02 -16 7 C-15.18015625 6.66226562 -14.3603125 6.32453125 -13.515625 5.9765625 C-12.43796875 5.53054688 -11.3603125 5.08453125 -10.25 4.625 C-8.64898437 3.96371094 -8.64898437 3.96371094 -7.015625 3.2890625 C-4.62444074 2.26692415 -2.30616817 1.19786405 0 0 Z " fill="#7DB749" transform="translate(299,294)"/>
<path d="M0 0 C0.33 0 0.66 0 1 0 C1.02689216 1.47906892 1.04634621 2.95827483 1.0625 4.4375 C1.07410156 5.26121094 1.08570313 6.08492187 1.09765625 6.93359375 C1 9 1 9 0 10 C-0.2253331 12.0279979 -0.44767185 14.05674874 -0.62109375 16.08984375 C-1 18 -1 18 -3 20 C-3.45811675 21.97235333 -3.45811675 21.97235333 -3.625 24.125 C-3.74875 25.40375 -3.8725 26.6825 -4 28 C-4.66 28 -5.32 28 -6 28 C-6.0825 29.11375 -6.165 30.2275 -6.25 31.375 C-6.90031874 36.50427456 -8.37935047 41.52409699 -11 46 C-13.13671875 47.2890625 -13.13671875 47.2890625 -15 48 C-13.22425208 42.53616026 -11.34442801 37.10166795 -9.05859375 31.828125 C-6.02517762 24.73825828 -4.23549782 17.4814875 -2.47558594 9.99902344 C-1.6808138 6.65836928 -0.8380684 3.33002399 0 0 Z " fill="#53B03F" transform="translate(350,200)"/>
<path d="M0 0 C1.19116644 3.57349932 0.74060984 5.40648221 0.1015625 9.1015625 C-1.18874676 17.52652295 -1.44528715 25.86484764 -1.625 34.375 C-1.66331386 35.90106065 -1.70237255 37.42710278 -1.7421875 38.953125 C-1.83667411 42.63524414 -1.92121298 46.31750742 -2 50 C-2.33 50 -2.66 50 -3 50 C-4.04037694 45.7118331 -4.17702659 41.52554929 -4.203125 37.13671875 C-4.20882507 36.3859053 -4.21452515 35.63509186 -4.22039795 34.86152649 C-4.22981369 33.27724603 -4.23636826 31.6929463 -4.24023438 30.10864258 C-4.24992724 27.70553807 -4.28097682 25.30329435 -4.3125 22.90039062 C-4.31903263 21.35417169 -4.32428208 19.8079467 -4.328125 18.26171875 C-4.3404718 17.55311203 -4.3528186 16.84450531 -4.36553955 16.11442566 C-4.3391886 10.10875256 -2.69457523 5.38915046 0 0 Z " fill="#B1D293" transform="translate(179,211)"/>
<path d="M0 0 C0.66717041 0.12600586 1.33434082 0.25201172 2.02172852 0.38183594 C6.87871443 1.37871443 6.87871443 1.37871443 9.125 3.625 C7.0413691 3.48348172 4.95810062 3.33662064 2.875 3.1875 C1.71484375 3.10628906 0.5546875 3.02507812 -0.640625 2.94140625 C-3.875 2.625 -3.875 2.625 -5.9765625 2.09765625 C-13.19744221 0.29986521 -21.58253253 1.73914712 -28.875 2.625 C-28.875 3.285 -28.875 3.945 -28.875 4.625 C-31.845 4.625 -34.815 4.625 -37.875 4.625 C-27.16461084 -2.51525944 -12.14259313 -2.33970193 0 0 Z " fill="#8EC283" transform="translate(263.875,96.375)"/>
<path d="M0 0 C0.75 1.625 0.75 1.625 1 4 C-2.136 9.712 -2.136 9.712 -6 11 C-7.0012745 12.77645476 -7.99988243 14.55485544 -8.95703125 16.35546875 C-10.29689791 18.4681424 -11.71133259 19.08453303 -14 20 C-14.66 20.99 -15.32 21.98 -16 23 C-16.66 23 -17.32 23 -18 23 C-16.69006903 17.85986153 -14.31318228 14.66911191 -10.6875 10.9375 C-10.21376953 10.43412109 -9.74003906 9.93074219 -9.25195312 9.41210938 C-6.22814623 6.21456802 -3.12305344 3.10029895 0 0 Z " fill="#BBCF84" transform="translate(126,196)"/>
<path d="M0 0 C0.53625 0.2475 1.0725 0.495 1.625 0.75 C-4.125 5.75 -4.125 5.75 -6.375 5.75 C-6.375 6.41 -6.375 7.07 -6.375 7.75 C-7.035 7.75 -7.695 7.75 -8.375 7.75 C-8.76365234 8.58917969 -8.76365234 8.58917969 -9.16015625 9.4453125 C-10.51588468 12.01727319 -12.10733983 14.27077887 -13.8125 16.625 C-16.37671124 20.23626417 -18.56849555 23.71193123 -20.375 27.75 C-21.48344919 24.42465243 -21.21954356 22.12817425 -20.375 18.75 C-19.715 18.75 -19.055 18.75 -18.375 18.75 C-18.375 18.09 -18.375 17.43 -18.375 16.75 C-17.715 16.75 -17.055 16.75 -16.375 16.75 C-16.375 15.43 -16.375 14.11 -16.375 12.75 C-15.715 12.75 -15.055 12.75 -14.375 12.75 C-14.375 12.09 -14.375 11.43 -14.375 10.75 C-12.5 8.625 -12.5 8.625 -10.375 6.75 C-9.715 6.75 -9.055 6.75 -8.375 6.75 C-8.375 5.76 -8.375 4.77 -8.375 3.75 C-3.35945596 -0.35362694 -3.35945596 -0.35362694 0 0 Z " fill="#B1C56C" transform="translate(204.375,175.25)"/>
<path d="M0 0 C0.6875 1.5625 0.6875 1.5625 1 4 C0.52199951 4.9701001 0.04399902 5.9402002 -0.44848633 6.93969727 C-2.68221693 11.95160036 -2.47835842 16.99526205 -2.51171875 22.40234375 C-2.52966995 23.48004532 -2.54762115 24.55774689 -2.56611633 25.66810608 C-2.62005446 29.09119826 -2.65406276 32.5141523 -2.6875 35.9375 C-2.72068756 38.26629519 -2.75517854 40.5950722 -2.79101562 42.92382812 C-2.87577144 48.61576151 -2.94419092 54.30771313 -3 60 C-3.33 60 -3.66 60 -4 60 C-4.24618923 53.36626549 -4.45802779 46.73204512 -4.64697266 40.09643555 C-4.71506983 37.84325832 -4.79078227 35.59029697 -4.87451172 33.33764648 C-4.99410352 30.08345265 -5.08550324 26.82944407 -5.171875 23.57421875 C-5.21439392 22.58105148 -5.25691284 21.58788422 -5.30072021 20.56462097 C-5.45298697 13.37069575 -4.01507085 7.54098269 -1 1 C-0.67 0.67 -0.34 0.34 0 0 Z " fill="#8BC161" transform="translate(217,213)"/>
<path d="M0 0 C0.66 1.32 1.32 2.64 2 4 C2.33 4.33 2.66 4.66 3 5 C3.25194063 8.43020341 3.18522745 11.87413911 3.1875 15.3125 C3.19974609 16.27607422 3.21199219 17.23964844 3.22460938 18.23242188 C3.22654297 19.16248047 3.22847656 20.09253906 3.23046875 21.05078125 C3.23457764 21.90325439 3.23868652 22.75572754 3.24291992 23.6340332 C2.98180606 26.17720347 2.27889646 27.80620312 1 30 C3.64 30 6.28 30 9 30 C9 30.33 9 30.66 9 31 C6.03 31 3.06 31 0 31 C0 20.77 0 10.54 0 0 Z " fill="#46A96D" transform="translate(325,219)"/>
<path d="M0 0 C0.66 0.33 1.32 0.66 2 1 C2.375 3.1875 2.375 3.1875 2 6 C0.17212359 8.19925447 -1.56512539 9.37675026 -4 11 C-4.99 10.67 -5.98 10.34 -7 10 C-7.2475 10.556875 -7.495 11.11375 -7.75 11.6875 C-9.25010679 14.46269757 -10.83115615 16.7035771 -13 19 C-14.32 19 -15.64 19 -17 19 C-17 18.34 -17 17.68 -17 17 C-16.34 17 -15.68 17 -15 17 C-15 16.34 -15 15.68 -15 15 C-14.34 15 -13.68 15 -13 15 C-13 14.34 -13 13.68 -13 13 C-12.34 13 -11.68 13 -11 13 C-10.773125 12.443125 -10.54625 11.88625 -10.3125 11.3125 C-8.62449964 8.33840412 -6.53323483 6.27991135 -4 4 C-3.34 4 -2.68 4 -2 4 C-2 3.34 -2 2.68 -2 2 C-1.34 2 -0.68 2 0 2 C0 1.34 0 0.68 0 0 Z " fill="#A2CA9B" transform="translate(209,112)"/>
<path d="M0 0 C4.26273145 4.26273145 4.17160699 10.70785088 4.3125 16.4375 C4.23838365 22.21857499 3.17068649 26.66372904 1 32 C-0.07310357 28.26400979 0.35844886 25.84930682 1 22 C1.35521278 14.63262375 0.70520348 7.32907898 0 0 Z " fill="#73BB8B" transform="translate(287,218)"/>
<path d="M0 0 C-4.63580214 2.51178377 -9.5258233 3.48467001 -14.625 4.6875 C-15.59179688 4.92533203 -16.55859375 5.16316406 -17.5546875 5.40820312 C-18.47765625 5.62798828 -19.400625 5.84777344 -20.3515625 6.07421875 C-21.19541504 6.27619873 -22.03926758 6.47817871 -22.90869141 6.6862793 C-25 7 -25 7 -27 6 C-26.67 5.34 -26.34 4.68 -26 4 C-23.51372463 3.18021727 -21.09993315 2.491626 -18.5625 1.875 C-17.84126953 1.69614258 -17.12003906 1.51728516 -16.37695312 1.33300781 C-10.86617701 0.04026543 -5.66388225 -0.49014366 0 0 Z " fill="#36A541" transform="translate(305,134)"/>
<path d="M0 0 C0.33 0 0.66 0 1 0 C1 1.98 1 3.96 1 6 C1.66 6 2.32 6 3 6 C2.67 15.24 2.34 24.48 2 34 C-0.48360441 30.27459338 -0.2315867 28.36937027 -0.1953125 23.92578125 C-0.1924826 23.2419487 -0.18965271 22.55811615 -0.18673706 21.8535614 C-0.17555684 19.67302835 -0.15045691 17.49290855 -0.125 15.3125 C-0.11496738 13.83268823 -0.10584202 12.35287001 -0.09765625 10.87304688 C-0.07562481 7.248564 -0.04111002 3.62432234 0 0 Z " fill="#E6EBB5" transform="translate(211,348)"/>
<path d="M0 0 C0.33 0 0.66 0 1 0 C1.46007709 9.35490093 0.18311221 18.6201564 -6 26 C-6.66 26 -7.32 26 -8 26 C-7.72285156 25.32839844 -7.44570313 24.65679687 -7.16015625 23.96484375 C-5.81622866 20.53036213 -4.61179498 17.05750849 -3.4375 13.5625 C-3.21642578 12.91990234 -2.99535156 12.27730469 -2.76757812 11.61523438 C-1.47306864 7.76299317 -0.55371671 4.02533381 0 0 Z " fill="#9CC878" transform="translate(324,246)"/>
<path d="M0 0 C-0.7734375 0.31453125 -1.546875 0.6290625 -2.34375 0.953125 C-7.19374386 2.94594426 -11.98491132 4.92653992 -16.625 7.375 C-17.73875 7.91125 -18.8525 8.4475 -20 9 C-20.66 8.67 -21.32 8.34 -22 8 C-16.23599202 3.38879361 -7.63434886 -2.75337172 0 0 Z M-26 9 C-23.875 9.375 -23.875 9.375 -22 10 C-23.98 10.33 -25.96 10.66 -28 11 C-27.34 10.34 -26.68 9.68 -26 9 Z " fill="#119439" transform="translate(284,141)"/>
<path d="M0 0 C0 0.33 0 0.66 0 1 C-0.825 1.2475 -1.65 1.495 -2.5 1.75 C-5.20051555 2.71446984 -7.2379429 3.67357587 -9.6875 5.0625 C-14.57661232 7.61623051 -19.56648306 7.80023835 -25 8 C-22.16797039 6.11198026 -19.73974381 5.03898349 -16.5625 3.875 C-15.14130859 3.34519531 -15.14130859 3.34519531 -13.69140625 2.8046875 C-11 2 -11 2 -7 2 C-7 1.34 -7 0.68 -7 0 C-3.98968256 -0.93423645 -3.13349732 -1.04449911 0 0 Z " fill="#BCD654" transform="translate(387,237)"/>
<path d="M0 0 C0.33 1.32 0.66 2.64 1 4 C0.01 4.33 -0.98 4.66 -2 5 C-2.433125 5.86625 -2.433125 5.86625 -2.875 6.75 C-4.42506833 9.85013666 -6.34797785 11.78998155 -9 14 C-10.32 13.67 -11.64 13.34 -13 13 C-8.71 8.71 -4.42 4.42 0 0 Z " fill="#A8C065" transform="translate(183,139)"/>
<path d="M0 0 C0.33 0 0.66 0 1 0 C1.28990996 6.32003716 0.31836884 11.46498124 -1.5 17.5 C-1.73847656 18.32242188 -1.97695313 19.14484375 -2.22265625 19.9921875 C-2.80561739 21.99757382 -3.40147151 23.99920475 -4 26 C-4.33 26 -4.66 26 -5 26 C-4.33644956 19.25390382 -3.28134207 12.65551466 -2 6 C-1.34 6 -0.68 6 0 6 C0 4.02 0 2.04 0 0 Z " fill="#199539" transform="translate(350,192)"/>
<path d="M0 0 C-5.23997039 4.10084639 -12.0668685 9 -19 9 C-18.67 8.01 -18.34 7.02 -18 6 C-16.68 6 -15.36 6 -14 6 C-14 5.34 -14 4.68 -14 4 C-12.42466914 3.13116294 -10.83935491 2.28040932 -9.25 1.4375 C-8.36828125 0.96183594 -7.4865625 0.48617187 -6.578125 -0.00390625 C-3.79298812 -1.07998186 -2.73019786 -1.06528748 0 0 Z " fill="#31A13E" transform="translate(269,145)"/>
<path d="M0 0 C0.66 0.33 1.32 0.66 2 1 C1.95359375 1.73863281 1.9071875 2.47726563 1.859375 3.23828125 C1.61152802 10.2045517 2.46366488 15.41053457 5.22265625 21.8203125 C5.60744141 22.89925781 5.60744141 22.89925781 6 24 C5.67 24.66 5.34 25.32 5 26 C0.41300715 18.98459916 -1.7278298 10.37004266 -1 2 C-0.67 1.34 -0.34 0.68 0 0 Z " fill="#5DA633" transform="translate(192,131)"/>
<path d="M0 0 C-0.6875 1.9375 -0.6875 1.9375 -2 4 C-4.125 4.625 -4.125 4.625 -7 5 C-8.85625 5.5259375 -8.85625 5.5259375 -10.75 6.0625 C-15.18647302 7.20548446 -19.44601527 7.18974936 -24 7 C-24 6.67 -24 6.34 -24 6 C-22.99839844 5.81824219 -21.99679687 5.63648438 -20.96484375 5.44921875 C-19.62231609 5.19573451 -18.27987257 4.94180432 -16.9375 4.6875 C-16.28072266 4.56955078 -15.62394531 4.45160156 -14.94726562 4.33007812 C-10.08238526 3.39544594 -4.71810002 0 0 0 Z " fill="#A0C97E" transform="translate(283,302)"/>
<path d="M0 0 C0.33 0.66 0.66 1.32 1 2 C0.33333333 3.33333333 -0.33333333 4.66666667 -1 6 C-1 7.32 -1 8.64 -1 10 C-3 12.25 -3 12.25 -5 14 C-5 12.68 -5 11.36 -5 10 C-5.99 9.67 -6.98 9.34 -8 9 C-6.38405168 6.95880212 -4.7143618 4.95927063 -3 3 C-2.34 3 -1.68 3 -1 3 C-0.67 2.01 -0.34 1.02 0 0 Z " fill="#99C669" transform="translate(312,277)"/>
<path d="M0 0 C1.54794214 3.09588428 0.24648304 5.19893011 -0.75 8.4375 C-1.26820313 10.16806641 -1.26820313 10.16806641 -1.796875 11.93359375 C-2.90574415 14.75977 -3.58345287 16.22574566 -6 18 C-6.66 18 -7.32 18 -8 18 C-6.46527032 13.27775484 -4.76054874 8.64144669 -3 4 C-2.34 4 -1.68 4 -1 4 C-0.67 2.68 -0.34 1.36 0 0 Z " fill="#58B241" transform="translate(343,230)"/>
<path d="M0 0 C0 0.66 0 1.32 0 2 C4.62 2 9.24 2 14 2 C14 2.33 14 2.66 14 3 C1.625 3.99 1.625 3.99 -11 5 C-11 4.34 -11 3.68 -11 3 C-9.54293274 2.49632243 -8.08429904 1.99717444 -6.625 1.5 C-5.81289062 1.2215625 -5.00078125 0.943125 -4.1640625 0.65625 C-2 0 -2 0 0 0 Z " fill="#7BBC7E" transform="translate(243,157)"/>
<path d="M0 0 C0.66 0.33 1.32 0.66 2 1 C1.979375 2.0725 1.95875 3.145 1.9375 4.25 C1.9857984 7.14790424 2.13155885 9.28612141 3 12 C1 10.625 1 10.625 -1 9 C-1 8.34 -1 7.68 -1 7 C-1.66 7 -2.32 7 -3 7 C-3 6.34 -3 5.68 -3 5 C-3.66 5 -4.32 5 -5 5 C-5 4.34 -5 3.68 -5 3 C-5.66 3 -6.32 3 -7 3 C-7 2.34 -7 1.68 -7 1 C-5.68 1.33 -4.36 1.66 -3 2 C-3 2.66 -3 3.32 -3 4 C-2.34 3.67 -1.68 3.34 -1 3 C-0.67 2.01 -0.34 1.02 0 0 Z " fill="#95C069" transform="translate(152,313)"/>
<path d="M0 0 C3.38276494 0.60406517 5.34321071 1.85742799 8 4 C8.99 4.66 9.98 5.32 11 6 C11 6.99 11 7.98 11 9 C11.66 9 12.32 9 13 9 C12.67 10.32 12.34 11.64 12 13 C10.62437146 11.71034824 9.29233607 10.37310707 8 9 C8 8.34 8 7.68 8 7 C7.4225 6.773125 6.845 6.54625 6.25 6.3125 C3.4336339 4.66961977 1.91922886 2.60466773 0 0 Z " fill="#BACE80" transform="translate(129,299)"/>
<path d="M0 0 C1.23265357 3.6979607 0.78351426 6.08568871 0.25 9.9375 C0.01023438 11.77634766 0.01023438 11.77634766 -0.234375 13.65234375 C-0.98280615 16.92482075 -1.76816843 18.55356924 -4 21 C-4.4009955 12.92068324 -3.63659178 7.27318356 0 0 Z " fill="#B9CD81" transform="translate(179,211)"/>
<path d="M0 0 C-6.59298265 2.96011466 -12.63324053 5.35935412 -20 5 C-17.27705937 2.27705937 -14.70864398 1.97275908 -11 1 C-9.1746875 0.4121875 -9.1746875 0.4121875 -7.3125 -0.1875 C-4.23462663 -0.94245007 -2.87782247 -1.15112899 0 0 Z " fill="#E1E595" transform="translate(277,391)"/>
<path d="M0 0 C1.98 0 3.96 0 6 0 C5.91253716 1.43861294 5.80434652 2.87597508 5.6875 4.3125 C5.62949219 5.11300781 5.57148438 5.91351563 5.51171875 6.73828125 C4.91793306 9.36272334 4.04219706 10.30820672 2 12 C1.00471256 9.01413769 0.76685725 7.10857 1 4 C1.66 3.01 2.32 2.02 3 1 C2.01 0.67 1.02 0.34 0 0 Z " fill="#83B95C" transform="translate(282,244)"/>
<path d="M0 0 C0.6875 1.5625 0.6875 1.5625 1 4 C0.31034915 5.67486636 -0.38836523 7.3475826 -1.1640625 8.984375 C-2.62979939 12.5185817 -3.27814606 16.25485193 -4 20 C-4.33 20 -4.66 20 -5 20 C-5.53298751 12.9379155 -3.82823693 7.46291892 -1 1 C-0.67 0.67 -0.34 0.34 0 0 Z " fill="#A1C580" transform="translate(217,213)"/>
<path d="M0 0 C0.66 0.33 1.32 0.66 2 1 C2.375 3.1875 2.375 3.1875 2 6 C0.16038352 7.99022836 -1.79186148 9.38989899 -4 11 C-4.66 10.67 -5.32 10.34 -6 10 C-5.34 8.02 -4.68 6.04 -4 4 C-3.34 4 -2.68 4 -2 4 C-2 3.34 -2 2.68 -2 2 C-1.34 2 -0.68 2 0 2 C0 1.34 0 0.68 0 0 Z " fill="#74B369" transform="translate(209,112)"/>
<path d="M0 0 C4.15153964 3.41019328 6.53086442 7.88055823 8 13 C7.60546875 15.28125 7.60546875 15.28125 7 17 C6.0097347 15.29807615 5.03326794 13.58811989 4.0625 11.875 C3.51722656 10.92367187 2.97195313 9.97234375 2.41015625 8.9921875 C0.97051473 5.93743568 0.39132616 3.33865613 0 0 Z " fill="#99C17B" transform="translate(390,212)"/>
<path d="M0 0 C7.72318625 -0.43533618 14.0488221 0.52441105 21 4 C21 4.66 21 5.32 21 6 C19.98292969 5.70996094 19.98292969 5.70996094 18.9453125 5.4140625 C12.67075691 3.65857742 6.40723336 2.18137708 0 1 C0 0.67 0 0.34 0 0 Z " fill="#6AB78C" transform="translate(260,160)"/>
<path d="M0 0 C0.99 0.495 0.99 0.495 2 1 C2 1.66 2 2.32 2 3 C2.66 3 3.32 3 4 3 C4 3.66 4 4.32 4 5 C4.66 5 5.32 5 6 5 C6 5.66 6 6.32 6 7 C6.66 7 7.32 7 8 7 C8 7.66 8 8.32 8 9 C8.66 9 9.32 9 10 9 C10 9.66 10 10.32 10 11 C8.35 11 6.7 11 5 11 C4.16151196 9.54462432 3.32936066 8.08559627 2.5 6.625 C1.80390625 5.40683594 1.80390625 5.40683594 1.09375 4.1640625 C0 2 0 2 0 0 Z " fill="#81B979" transform="translate(302,122)"/>
<path d="M0 0 C0.66 0 1.32 0 2 0 C3.2263757 2.45275141 3.11415314 4.0505781 3.09765625 6.7890625 C3.09282227 8.20058594 3.09282227 8.20058594 3.08789062 9.640625 C3.07951172 10.62546875 3.07113281 11.6103125 3.0625 12.625 C3.05798828 13.61757812 3.05347656 14.61015625 3.04882812 15.6328125 C3.03702145 18.0886016 3.020554 20.54427104 3 23 C2.67 23 2.34 23 2 23 C1.67 16.4 1.34 9.8 1 3 C0.34 2.67 -0.32 2.34 -1 2 C-0.67 1.34 -0.34 0.68 0 0 Z " fill="#D8DF7E" transform="translate(397,229)"/>
<path d="M0 0 C3.21751031 0.65229708 5.71650015 1.81465406 8.5625 3.4375 C9.32691406 3.86933594 10.09132813 4.30117187 10.87890625 4.74609375 C12.61991382 5.77530817 14.31720226 6.87813484 16 8 C16 8.66 16 9.32 16 10 C11.94513862 9.37011862 9.10576554 7.26959988 5.75 5 C4.67234375 4.278125 3.5946875 3.55625 2.484375 2.8125 C1.66453125 2.214375 0.8446875 1.61625 0 1 C0 0.67 0 0.34 0 0 Z " fill="#87BA7E" transform="translate(273,100)"/>
<path d="M0 0 C0.66 0 1.32 0 2 0 C2.12117188 0.65226563 2.24234375 1.30453125 2.3671875 1.9765625 C3.28943989 6.78646342 4.30167277 11.39025465 6 16 C5.34 16.33 4.68 16.66 4 17 C-0.59225513 5.47835991 -0.59225513 5.47835991 0 0 Z " fill="#B7C977" transform="translate(102,255)"/>
<path d="M0 0 C4.13621084 3.3810038 7.81316569 6.66590534 11 11 C9.68 11 8.36 11 7 11 C7 10.34 7 9.68 7 9 C6.401875 8.7525 5.80375 8.505 5.1875 8.25 C2.66413131 6.80807503 1.49969924 5.47450374 0 3 C0 2.01 0 1.02 0 0 Z " fill="#92C070" transform="translate(370,191)"/>
<path d="M0 0 C0.33 0.66 0.66 1.32 1 2 C1.66 2 2.32 2 3 2 C3 2.66 3 3.32 3 4 C5.475 4.99 5.475 4.99 8 6 C7.67 6.99 7.34 7.98 7 9 C4.99743426 7.85865673 2.99800203 6.71181367 1 5.5625 C-0.11375 4.92441406 -1.2275 4.28632813 -2.375 3.62890625 C-3.24125 3.09136719 -4.1075 2.55382812 -5 2 C-5 1.67 -5 1.34 -5 1 C-3.35 0.67 -1.7 0.34 0 0 Z " fill="#57B180" transform="translate(287,165)"/>
<path d="M0 0 C0.33 0.66 0.66 1.32 1 2 C1.66 2 2.32 2 3 2 C4.7265625 3.75 4.7265625 3.75 6.625 6 C7.25664062 6.7425 7.88828125 7.485 8.5390625 8.25 C9.02117187 8.8275 9.50328125 9.405 10 10 C7 11 7 11 4 11 C3.896875 10.401875 3.79375 9.80375 3.6875 9.1875 C3.16745356 6.92027543 3.16745356 6.92027543 1.4375 5.5 C0 4 0 4 0 0 Z " fill="#47A46F" transform="translate(313,133)"/>
<path d="M0 0 C2.43847451 0.11397544 4.87513174 0.24070974 7.3125 0.375 C8.00279297 0.4059375 8.69308594 0.436875 9.40429688 0.46875 C13.06990789 0.68124919 14.87900792 0.91933861 18 3 C11.20292787 4.38458877 6.47913427 3.35001386 0 1 C0 0.67 0 0.34 0 0 Z " fill="#DEE58D" transform="translate(230,392)"/>
<path d="M0 0 C0.99 0.33 1.98 0.66 3 1 C-0.3 4.3 -3.6 7.6 -7 11 C-7.33 10.01 -7.66 9.02 -8 8 C-7.67 7.34 -7.34 6.68 -7 6 C-6.34 6 -5.68 6 -5 6 C-5 5.34 -5 4.68 -5 4 C-4.34 4 -3.68 4 -3 4 C-3 3.34 -3 2.68 -3 2 C-2.01 1.34 -1.02 0.68 0 0 Z " fill="#DCE080" transform="translate(368,301)"/>
<path d="M0 0 C0.66 0 1.32 0 2 0 C-1 6 -1 6 -2.9375 6.9375 C-5.31971493 7.95345922 -5.31971493 7.95345922 -7 11 C-7.66 11 -8.32 11 -9 11 C-8.3125 8.125 -8.3125 8.125 -7 5 C-4.5 3.8125 -4.5 3.8125 -2 3 C-1.34 2.01 -0.68 1.02 0 0 Z " fill="#ACC468" transform="translate(117,208)"/>
<path d="M0 0 C0 2 0 2 -2.1875 4.3125 C-3.115625 5.199375 -4.04375 6.08625 -5 7 C-5.886875 7.928125 -6.77375 8.85625 -7.6875 9.8125 C-10 12 -10 12 -12 12 C-9.98697969 7.241952 -5.71890513 0 0 0 Z " fill="#89C385" transform="translate(230,201)"/>
<path d="M0 0 C0.66 0.33 1.32 0.66 2 1 C0.68 1.99 -0.64 2.98 -2 4 C-1.34 2.68 -0.68 1.36 0 0 Z M-2 5 C-2.969375 5.61875 -3.93875 6.2375 -4.9375 6.875 C-8.02835362 8.65678846 -8.02835362 8.65678846 -9 11 C-11.5625 11.625 -11.5625 11.625 -14 12 C-7.17241379 3.27586207 -7.17241379 3.27586207 -2 5 Z " fill="#AEC569" transform="translate(141,184)"/>
<path d="M0 0 C0.33 0 0.66 0 1 0 C1.04898438 1.08539063 1.09796875 2.17078125 1.1484375 3.2890625 C1.22351986 4.73439784 1.29906528 6.17970919 1.375 7.625 C1.4059375 8.33785156 1.436875 9.05070312 1.46875 9.78515625 C1.71020155 14.17152608 2.39342731 17.8594834 4 22 C2.68 21.34 1.36 20.68 0 20 C0 13.4 0 6.8 0 0 Z " fill="#DAE080" transform="translate(213,363)"/>
<path d="M0 0 C5.6383837 1.31125202 7.85405343 3.328746 11 8 C10.67 8.99 10.34 9.98 10 11 C8.33035479 9.35718838 6.6643536 7.71067239 5 6.0625 C4.071875 5.14597656 3.14375 4.22945313 2.1875 3.28515625 C0 1 0 1 0 0 Z " fill="#C4D282" transform="translate(118,288)"/>
<path d="M0 0 C0.8125 1.6875 0.8125 1.6875 1 4 C-2.17423736 8.03993846 -5.05770013 9.73569073 -10 11 C-6.79239749 7.19364503 -3.59253891 3.45436433 0 0 Z " fill="#BDCF87" transform="translate(143,179)"/>
<path d="M0 0 C0.33 0.66 0.66 1.32 1 2 C1.66 2 2.32 2 3 2 C4.70680947 3.62553283 6.37660195 5.29115995 8 7 C7.67 7.99 7.34 8.98 7 10 C5.87105124 9.06725891 4.74699124 8.12859878 3.625 7.1875 C2.99851563 6.66542969 2.37203125 6.14335937 1.7265625 5.60546875 C0 4 0 4 -2 1 C-1.34 0.67 -0.68 0.34 0 0 Z " fill="#9BC77A" transform="translate(157,324)"/>
<path d="M0 0 C0.66 0 1.32 0 2 0 C1.01 2.97 0.02 5.94 -1 9 C-3.97 9 -6.94 9 -10 9 C-9.67 8.01 -9.34 7.02 -9 6 C-6.69 6.66 -4.38 7.32 -2 8 C-1.855625 6.865625 -1.71125 5.73125 -1.5625 4.5625 C-1 1 -1 1 0 0 Z " fill="#1A9437" transform="translate(336,240)"/>
<path d="M0 0 C1.65 0 3.3 0 5 0 C-0.53846154 5.84615385 -0.53846154 5.84615385 -4 7 C-4.99 6.67 -5.98 6.34 -7 6 C-6.34 6 -5.68 6 -5 6 C-5 5.34 -5 4.68 -5 4 C-4.01 4 -3.02 4 -2 4 C-2 3.34 -2 2.68 -2 2 C-1.34 2 -0.68 2 0 2 C0 1.34 0 0.68 0 0 Z " fill="#E3E695" transform="translate(284,383)"/>
<path d="M0 0 C3.4375 0.8125 3.4375 0.8125 7 2 C7.33 2.99 7.66 3.98 8 5 C7.34 5 6.68 5 6 5 C5.67 5.99 5.34 6.98 5 8 C0 2.25 0 2.25 0 0 Z " fill="#B5C874" transform="translate(112,280)"/>
<path d="M0 0 C1.30660357 4.29727397 0.6596762 7.60215865 0 12 C-0.66 12 -1.32 12 -2 12 C-2.66 13.98 -3.32 15.96 -4 18 C-4.6875 16.375 -4.6875 16.375 -5 14 C-4.03685937 11.98199105 -3.03041427 9.98450156 -2 8 C-1.20594815 5.34997152 -0.60571598 2.70242515 0 0 Z " fill="#46AA41" transform="translate(346,216)"/>
<path d="M0 0 C1.12894876 0.93274109 2.25300876 1.87140122 3.375 2.8125 C4.00148438 3.33457031 4.62796875 3.85664063 5.2734375 4.39453125 C7 6 7 6 9 9 C8.01 9.495 8.01 9.495 7 10 C6.01 9.67 5.02 9.34 4 9 C3.67 8.01 3.34 7.02 3 6 C2.34 5.67 1.68 5.34 1 5 C0.375 2.4375 0.375 2.4375 0 0 Z " fill="#8FC16D" transform="translate(354,175)"/>
<path d="M0 0 C1.32 0.66 2.64 1.32 4 2 C2.02 4.31 0.04 6.62 -2 9 C-3 5 -3 5 -1.5625 2.25 C-1.046875 1.5075 -0.53125 0.765 0 0 Z " fill="#DEE27E" transform="translate(386,280)"/>
<path d="M0 0 C0.99 0.33 1.98 0.66 3 1 C4.09506492 4.28519475 4.09960608 6.73663415 4.0625 10.1875 C4.05347656 11.27417969 4.04445313 12.36085937 4.03515625 13.48046875 C4.02355469 14.31191406 4.01195312 15.14335937 4 16 C3.67 16 3.34 16 3 16 C1.91681831 10.6787385 0.847126 5.36513131 0 0 Z " fill="#73BE98" transform="translate(321,208)"/>
<path d="M0 0 C4.13447496 1.81916898 5.80772735 4.02143111 8 8 C7.67 8.99 7.34 9.98 7 11 C4.18515955 9.59257978 3.72516601 7.74442408 2.375 4.9375 C1.92898438 4.01839844 1.48296875 3.09929687 1.0234375 2.15234375 C0.51683594 1.08693359 0.51683594 1.08693359 0 0 Z " fill="#58B283" transform="translate(312,191)"/>
<path d="M0 0 C0.598125 0.309375 1.19625 0.61875 1.8125 0.9375 C4.08956772 2.10209704 4.08956772 2.10209704 7 3 C7 3.66 7 4.32 7 5 C7.99 5 8.98 5 10 5 C10.33 6.98 10.66 8.96 11 11 C10.29875 10.278125 9.5975 9.55625 8.875 8.8125 C6.9024876 6.8286838 4.85610734 5.01682261 2.6875 3.25 C1.800625 2.5075 0.91375 1.765 0 1 C0 0.67 0 0.34 0 0 Z " fill="#62B489" transform="translate(297,175)"/>
<path d="M0 0 C0.66 0.33 1.32 0.66 2 1 C-2.18461538 5.92307692 -2.18461538 5.92307692 -6.3125 6.3125 C-7.199375 6.209375 -8.08625 6.10625 -9 6 C-3.30379747 1.25316456 -3.30379747 1.25316456 0 0 Z " fill="#C6D959" transform="translate(395,230)"/>
<path d="M0 0 C-0.59927826 3.35595828 -1.84622436 5.37801226 -4 8 C-4.99 7.67 -5.98 7.34 -7 7 C-3.72340426 0 -3.72340426 0 0 0 Z " fill="#7BB33D" transform="translate(317,276)"/>
<path d="M0 0 C0.66 0 1.32 0 2 0 C3.7265625 1.75 3.7265625 1.75 5.625 4 C6.25664062 4.7425 6.88828125 5.485 7.5390625 6.25 C8.02117187 6.8275 8.50328125 7.405 9 8 C8.01 8.33 7.02 8.66 6 9 C4.62437146 7.71034824 3.29233607 6.37310707 2 5 C2 4.34 2 3.68 2 3 C1.34 3 0.68 3 0 3 C0 2.01 0 1.02 0 0 Z " fill="#51A575" transform="translate(336,157)"/>
<path d="M0 0 C0 1.65 0 3.3 0 5 C-3.65316671 3.75023244 -4.78065836 3.32901247 -7 0 C-2.25 -1.125 -2.25 -1.125 0 0 Z " fill="#8ABB66" transform="translate(175,338)"/>
<path d="M0 0 C0.33 0 0.66 0 1 0 C1.3690205 9.41002278 1.3690205 9.41002278 -1 14 C-1.66 14 -2.32 14 -3 14 C-2.01 9.38 -1.02 4.76 0 0 Z " fill="#ABD294" transform="translate(324,246)"/>
<path d="M0 0 C-1.625 2 -1.625 2 -4 4 C-7.25 4.25 -7.25 4.25 -10 4 C-7.39928297 0.98864344 -3.94054294 -1.97027147 0 0 Z " fill="#5AB783" transform="translate(240,197)"/>
<path d="M0 0 C1.14926266 0.95421808 2.29430541 1.91352045 3.4375 2.875 C4.07558594 3.40867187 4.71367187 3.94234375 5.37109375 4.4921875 C7 6 7 6 8 8 C4.89347355 7.6641593 3.39585697 7.40950721 1.1875 5.125 C0 3 0 3 0 0 Z " fill="#9FC697" transform="translate(294,114)"/>
<path d="M0 0 C0.66 0.99 1.32 1.98 2 3 C-0.52956528 6.0916909 -3.22454612 6.90931332 -7 8 C-6.02133662 6.85373678 -5.04205413 5.70800212 -4.0625 4.5625 C-3.51722656 3.92441406 -2.97195313 3.28632813 -2.41015625 2.62890625 C-1.63204305 1.73008851 -0.84063472 0.84063472 0 0 Z " fill="#BCD551" transform="translate(297,302)"/>
<path d="M0 0 C2.64 0 5.28 0 8 0 C3.82050327 2.78633115 1.06624674 4 -4 4 C-4 3.34 -4 2.68 -4 2 C-2.68 2 -1.36 2 0 2 C0 1.34 0 0.68 0 0 Z " fill="#82B537" transform="translate(360,242)"/>
<path d="M0 0 C0.66 0 1.32 0 2 0 C0.25 5.75 0.25 5.75 -2 8 C-4.125 7.625 -4.125 7.625 -6 7 C-5.04882866 5.8274869 -4.08882991 4.66212985 -3.125 3.5 C-2.59132812 2.8503125 -2.05765625 2.200625 -1.5078125 1.53125 C-0.76144531 0.77328125 -0.76144531 0.77328125 0 0 Z " fill="#A9C67B" transform="translate(190,131)"/>
<path d="M0 0 C0 0.66 0 1.32 0 2 C-0.66 2 -1.32 2 -2 2 C-2 2.66 -2 3.32 -2 4 C-4.97 4 -7.94 4 -11 4 C-7.61125486 1.74083657 -4.15175481 0 0 0 Z " fill="#8EC286" transform="translate(237,97)"/>
<path d="M0 0 C0 4.64285714 0 4.64285714 -1 7 C-4.0625 9.25 -4.0625 9.25 -7 11 C-5.22054913 6.95579349 -2.60470327 3.53921513 0 0 Z " fill="#B8D151" transform="translate(315,280)"/>
<path d="M0 0 C0.75 1.625 0.75 1.625 1 4 C-0.9375 7.25 -0.9375 7.25 -3 10 C-3.66 9.67 -4.32 9.34 -5 9 C-2.25 2.25 -2.25 2.25 0 0 Z " fill="#AEC766" transform="translate(126,196)"/>
<path d="M0 0 C0.99 0 1.98 0 3 0 C3 0.99 3 1.98 3 3 C2.34 3 1.68 3 1 3 C1 3.66 1 4.32 1 5 C-0.32 5.33 -1.64 5.66 -3 6 C-2.42655063 3.13275314 -2.1385485 2.1385485 0 0 Z " fill="#B0C56E" transform="translate(147,175)"/>
<path d="M0 0 C0 0.66 0 1.32 0 2 C-0.7425 2.28875 -1.485 2.5775 -2.25 2.875 C-4.56739797 3.82302644 -6.77917115 4.84845911 -9 6 C-9.33 5.01 -9.66 4.02 -10 3 C-3.375 0 -3.375 0 0 0 Z " fill="#C2DA57" transform="translate(224,351)"/>
<path d="M0 0 C4.8 3.44615385 4.8 3.44615385 5.8125 6.25 C5.874375 6.8275 5.93625 7.405 6 8 C3.5625 7.375 3.5625 7.375 1 6 C0.1875 2.875 0.1875 2.875 0 0 Z " fill="#5CB27E" transform="translate(279,206)"/>
<path d="M0 0 C0.598125 0.20625 1.19625 0.4125 1.8125 0.625 C-3.9375 5.625 -3.9375 5.625 -6.1875 5.625 C-5.875 3.75 -5.875 3.75 -5.1875 1.625 C-2.1875 -0.375 -2.1875 -0.375 0 0 Z " fill="#BBD187" transform="translate(204.1875,175.375)"/>
<path d="M0 0 C0 0.66 0 1.32 0 2 C-2.31 3.32 -4.62 4.64 -7 6 C-7.66 5.34 -8.32 4.68 -9 4 C-7.35 3.67 -5.7 3.34 -4 3 C-4 2.34 -4 1.68 -4 1 C-2 0 -2 0 0 0 Z " fill="#BCD352" transform="translate(252,338)"/>
<path d="M0 0 C0.99 0 1.98 0 3 0 C3.25 2.3125 3.25 2.3125 3 5 C1 6.8125 1 6.8125 -1 8 C-0.67 5.36 -0.34 2.72 0 0 Z " fill="#7BB53E" transform="translate(304,287)"/>
<path d="M0 0 C0.5259375 0.7734375 0.5259375 0.7734375 1.0625 1.5625 C3.09468727 3.40146383 3.09468727 3.40146383 6.6875 2.6875 C7.780625 2.460625 8.87375 2.23375 10 2 C8.25 4.0625 8.25 4.0625 6 6 C3.875 6.0625 3.875 6.0625 2 5 C0.75 2.4375 0.75 2.4375 0 0 Z " fill="#7DB562" transform="translate(201,169)"/>
<path d="M0 0 C0.33 0.99 0.66 1.98 1 3 C-0.4375 5.1875 -0.4375 5.1875 -2 7 C-3.32 6.67 -4.64 6.34 -6 6 C-4.02 4.02 -2.04 2.04 0 0 Z " fill="#B3C875" transform="translate(176,146)"/>
<path d="M0 0 C-0.99 0.33 -1.98 0.66 -3 1 C-3 1.66 -3 2.32 -3 3 C-4.65 3.66 -6.3 4.32 -8 5 C-7.8125 3.125 -7.8125 3.125 -7 1 C-2.66666667 -1.33333333 -2.66666667 -1.33333333 0 0 Z " fill="#BFD653" transform="translate(243,344)"/>
<path d="M0 0 C0.66 0.99 1.32 1.98 2 3 C0.71034824 4.37562854 -0.62689293 5.70766393 -2 7 C-2.66 7 -3.32 7 -4 7 C-2.92598892 4.08482708 -2.22189824 2.22189824 0 0 Z " fill="#C3D855" transform="translate(307,291)"/>
<path d="M0 0 C4.95696581 1.23924145 7.11658466 2.78577758 10 7 C8.02 6.34 6.04 5.68 4 5 C4 4.34 4 3.68 4 3 C2.68 2.34 1.36 1.68 0 1 C0 0.67 0 0.34 0 0 Z " fill="#249C3A" transform="translate(243,221)"/>
<path d="M0 0 C-1.26418246 0.69965443 -2.53665402 1.38434763 -3.8125 2.0625 C-4.52019531 2.44535156 -5.22789062 2.82820312 -5.95703125 3.22265625 C-8 4 -8 4 -11 3 C-4.03571429 -1.41964286 -4.03571429 -1.41964286 0 0 Z " fill="#3DA740" transform="translate(269,145)"/>
<path d="M0 0 C0.66 0.33 1.32 0.66 2 1 C0.29374499 3.78388975 -0.47626739 4.85384206 -3.6875 5.75 C-4.8321875 5.87375 -4.8321875 5.87375 -6 6 C-4 4 -2 2 0 0 Z " fill="#B5D150" transform="translate(273,323)"/>
<path d="M0 0 C0.33 0.99 0.66 1.98 1 3 C-0.25 4.5625 -0.25 4.5625 -2 6 C-4.1875 5.6875 -4.1875 5.6875 -6 5 C-4.02 3.35 -2.04 1.7 0 0 Z " fill="#BCD251" transform="translate(289,310)"/>
<path d="M0 0 C-1.73605513 1.73605513 -4.20549496 1.65611982 -6.5625 2.0625 C-7.57441406 2.23910156 -8.58632813 2.41570312 -9.62890625 2.59765625 C-10.41136719 2.73042969 -11.19382812 2.86320312 -12 3 C-12 2.01 -12 1.02 -12 0 C-10.37585622 -0.19477739 -8.75063577 -0.38059458 -7.125 -0.5625 C-6.22007812 -0.66691406 -5.31515625 -0.77132813 -4.3828125 -0.87890625 C-2 -1 -2 -1 0 0 Z " fill="#7FB150" transform="translate(270,309)"/>
<path d="M0 0 C0.99 0 1.98 0 3 0 C3 0.66 3 1.32 3 2 C-0.96 3.98 -0.96 3.98 -5 6 C-5 5.01 -5 4.02 -5 3 C-3.35 2.67 -1.7 2.34 0 2 C0 1.34 0 0.68 0 0 Z " fill="#85BE7B" transform="translate(217,165)"/>
<path d="M0 0 C-1 3 -1 3 -4 5 C-6.1875 4.625 -6.1875 4.625 -8 4 C-2.25 0 -2.25 0 0 0 Z " fill="#92C383" transform="translate(226,101)"/>
<path d="M0 0 C0.66 0 1.32 0 2 0 C1.40138258 2.35171131 0.73075648 4.6859378 0 7 C-0.99 7.495 -0.99 7.495 -2 8 C-1.125 1.125 -1.125 1.125 0 0 Z " fill="#E5E89B" transform="translate(396,266)"/>
<path d="M0 0 C1.98 0 3.96 0 6 0 C6.33 1.32 6.66 2.64 7 4 C4.97954558 3.39816251 2.97888961 2.72693904 1 2 C0.67 1.34 0.34 0.68 0 0 Z " fill="#1F9A38" transform="translate(262,233)"/>
<path d="M0 0 C0.66 0.33 1.32 0.66 2 1 C2.33 1.99 2.66 2.98 3 4 C1.02 4 -0.96 4 -3 4 C-2.67 3.01 -2.34 2.02 -2 1 C-1.34 0.67 -0.68 0.34 0 0 Z " fill="#11944A" transform="translate(284,162)"/>
<path d="M0 0 C1.65 0 3.3 0 5 0 C4.01 0.495 4.01 0.495 3 1 C3 1.66 3 2.32 3 3 C2.01 3 1.02 3 0 3 C0 3.66 0 4.32 0 5 C-0.66 5 -1.32 5 -2 5 C-2 4.01 -2 3.02 -2 2 C-1.34 2 -0.68 2 0 2 C0 1.34 0 0.68 0 0 Z " fill="#3CA542" transform="translate(245,154)"/>
<path d="M0 0 C0.66 0.33 1.32 0.66 2 1 C0.75 3 0.75 3 -1 5 C-2.32 5 -3.64 5 -5 5 C-5 4.34 -5 3.68 -5 3 C-4.34 3 -3.68 3 -3 3 C-3 2.34 -3 1.68 -3 1 C-2.01 0.67 -1.02 0.34 0 0 Z " fill="#82B978" transform="translate(197,126)"/>
<path d="M0 0 C0 0.66 0 1.32 0 2 C-2.64 2.33 -5.28 2.66 -8 3 C-8 2.34 -8 1.68 -8 1 C-5.07175348 0.02391783 -3.04386724 -0.08226668 0 0 Z " fill="#77B46A" transform="translate(245,96)"/>
</svg>
